<?xml version="1.0" standalone="no"?>
<!DOCTYPE svg PUBLIC "-//W3C//DTD SVG 20010904//EN"
 "http://www.w3.org/TR/2001/REC-SVG-20010904/DTD/svg10.dtd">
<svg version="1.0" xmlns="http://www.w3.org/2000/svg"
 width="1468.000000pt" height="1512.000000pt" viewBox="0 0 1468.000000 1512.000000"
 preserveAspectRatio="xMidYMid meet">
<metadata>
Created by potrace 1.15, written by Peter Selinger 2001-2017
</metadata>
<g transform="translate(0.000000,1512.000000) scale(0.100000,-0.100000)"
fill="#000000" stroke="none">
<path d="M5655 11519 c-208 -29 -465 -168 -696 -375 -132 -119 -281 -213 -386
-244 -24 -7 -43 -17 -43 -21 0 -10 77 19 153 57 81 41 190 118 270 190 217
197 430 321 640 371 55 14 115 18 252 18 103 0 159 3 130 7 -69 9 -247 7 -320
-3z"/>
<path d="M6100 11486 c147 -44 247 -102 375 -218 148 -133 209 -176 335 -235
151 -71 290 -103 448 -103 82 0 240 25 229 36 -2 2 -35 -3 -73 -12 -84 -20
-296 -14 -389 10 -186 50 -351 141 -514 285 -118 105 -182 151 -266 194 -55
27 -178 67 -204 66 -9 0 18 -10 59 -23z"/>
<path d="M4530 10051 c0 -4 19 -14 43 -21 105 -31 254 -125 386 -244 236 -213
485 -345 704 -375 86 -12 233 -13 312 -3 29 4 -27 7 -130 7 -137 0 -197 4
-252 18 -122 29 -174 51 -338 142 -67 37 -213 148 -302 229 -80 72 -189 149
-270 190 -76 38 -153 67 -153 57z"/>
<path d="M7075 9985 c-116 -21 -266 -80 -380 -149 -56 -34 -117 -82 -220 -174
-128 -116 -228 -174 -375 -218 -41 -13 -68 -23 -59 -23 26 -1 149 39 204 66
84 43 148 89 266 194 163 144 328 235 514 285 93 24 305 30 389 10 38 -9 71
-14 73 -12 3 2 -27 11 -66 20 -84 19 -246 20 -346 1z"/>
</g>
</svg>
